# File created by Blade
# Date/Time:  Tue Jan 27 20:12:02 2015
# Frame Rate: 120.000 fps
#------------------------------------------------------
:FULLY-SPECIFIED
:DEGREES
1569
root 8.613095 32.119781 -3.412704 2.224085 1.983207 0.596107
Spine 1.794981 12.707560 -5.264029
Head 16.456532 -5.206949 -0.961056
LeftShoulder -17.719183 0.634426 27.957086
LeftArm -13.831141 -37.838913 -66.586134
LeftForeArm -7.076901 -0.000000 95.419354
LeftHand 17.973250 -0.000000 10.353184
LeftHandThumb1 -26.253704 0.000000 33.147579
RightShoulder -19.142952 -24.457229 -24.029158
RightArm 10.461677 -39.422525 89.158517
RightForeArm -23.870599 -0.000000 103.541814
RightHand 18.036556 0.000000 0.254440
RightHandThumb1 -24.326973 -0.000000 -32.862282
LeftUpLeg 4.987661 0.187383 -9.170199
LeftLeg -4.022737 -0.000000 0.000000
LeftFoot -13.711603 12.631545 -15.000703
LeftToeBase 23.937485 -0.000000 -0.000000
RightUpLeg 6.495134 -57.471184 -13.279619
RightLeg 98.153405 -0.000000 -0.000000
RightFoot 27.298569 -18.087781 41.834240
RightToeBase 23.428030 -0.000000 -0.000000
1570
root 8.612736 32.117093 -3.373708 2.084446 1.686014 0.566166
Spine 1.730471 13.140405 -5.244600
Head 16.640200 -5.215079 -0.970805
LeftShoulder -17.836253 0.747790 27.864791
LeftArm -13.642413 -37.787947 -66.646820
LeftForeArm -6.913315 -0.000000 95.549376
LeftHand 17.760281 -0.000000 10.322545
LeftHandThumb1 -26.253704 0.000000 33.147579
RightShoulder -19.114558 -24.447938 -24.017438
RightArm 10.397513 -39.488781 89.163169
RightForeArm -23.852751 -0.000000 103.531177
RightHand 18.099558 0.000000 0.228885
RightHandThumb1 -24.326973 -0.000000 -32.862282
LeftUpLeg 5.166195 0.292422 -9.160191
LeftLeg -3.950681 -0.000000 0.000000
LeftFoot -13.897619 12.737220 -15.142267
LeftToeBase 23.868693 -0.000000 -0.000000
RightUpLeg 8.630419 -59.106298 -15.609839
RightLeg 98.147446 -0.000000 -0.000000
RightFoot 27.514785 -18.067870 41.914926
RightToeBase 23.865677 -0.000000 -0.000000
1571
root 8.612259 32.114998 -3.337001 1.950539 1.396259 0.562809
Spine 1.671714 13.577447 -5.258219
Head 16.785896 -5.287374 -0.969344
LeftShoulder -17.899948 0.722916 27.825314
LeftArm -13.677836 -37.689542 -66.562001
LeftForeArm -6.956632 0.000000 95.671134
LeftHand 17.874571 0.000000 10.120734
LeftHandThumb1 -26.253704 0.000000 33.147579
RightShoulder -19.113937 -24.454194 -23.997729
RightArm 10.326488 -39.558380 89.205157
RightForeArm -23.830459 0.000000 103.520272
RightHand 18.074621 -0.000000 0.196856
RightHandThumb1 -24.326973 -0.000000 -32.862282
LeftUpLeg 5.300933 0.459825 -9.173536
LeftLeg -3.812270 -0.000000 0.000000
LeftFoot -13.998037 12.848576 -14.867203
LeftToeBase 23.636497 -0.000000 -0.000000
RightUpLeg 10.870131 -60.669363 -18.068247
RightLeg 98.148281 -0.000000 -0.000000
RightFoot 28.305128 -17.724499 41.101507
RightToeBase 20.581954 -0.000000 -0.000000
1572
root 8.607006 32.113762 -3.303547 1.853990 1.082198 0.490049
Spine 1.573238 14.030574 -5.201412
Head 16.901113 -5.364463 -0.975998
LeftShoulder -17.972692 0.780743 27.747728
LeftArm -13.614983 -37.592125 -66.549389
LeftForeArm -6.916908 -0.000000 95.824183
LeftHand 17.754200 -0.000000 10.024055
LeftHandThumb1 -26.253704 0.000000 33.147579
RightShoulder -19.138266 -24.551080 -23.924848
RightArm 10.364295 -39.599768 89.170049
RightForeArm -23.878886 0.000000 103.520702
RightHand 18.078936 0.000000 0.266847
RightHandThumb1 -24.326973 -0.000000 -32.862282
LeftUpLeg 5.444945 0.469259 -9.112487
LeftLeg -3.783529 -0.000000 0.000000
LeftFoot -14.187201 13.040065 -14.933547
LeftToeBase 23.558705 -0.000000 -0.000000
RightUpLeg 13.068292 -62.115674 -20.543544
RightLeg 98.233621 -0.000000 -0.000000
RightFoot 28.079415 -17.994052 41.370937
RightToeBase 21.952029 -0.000000 -0.000000
1573
root 8.603076 32.114397 -3.275048 1.775700 0.749776 0.414557
Spine 1.472455 14.471857 -5.131556
Head 17.011638 -5.397963 -0.987948
LeftShoulder -18.053854 0.825991 27.661315
LeftArm -13.576408 -37.512593 -66.525725
LeftForeArm -6.966274 -0.000000 95.967869
LeftHand 17.773311 -0.000000 9.784076
LeftHandThumb1 -26.253704 0.000000 33.147579
RightShoulder -19.128327 -24.533103 -23.902619
RightArm 10.279086 -39.633265 89.219445
RightForeArm -23.880884 -0.000000 103.506364
RightHand 18.120169 -0.000000 0.316689
RightHandThumb1 -24.326973 -0.000000 -32.862282
LeftUpLeg 5.558173 0.397719 -9.061208
LeftLeg -3.756439 -0.000000 0.000000
LeftFoot -14.448030 13.341147 -15.163737
LeftToeBase 23.699227 -0.000000 -0.000000
RightUpLeg 15.220771 -63.401822 -22.982954
RightLeg 98.316314 -0.000000 -0.000000
RightFoot 27.783413 -18.341708 41.925932
RightToeBase 22.350220 -0.000000 -0.000000
1574
root 8.594201 32.116663 -3.248606 1.715264 0.376392 0.363982
Spine 1.358448 14.939353 -5.132859
Head 17.084273 -5.426656 -0.933535
LeftShoulder -18.113085 0.829183 27.602017
LeftArm -13.569919 -37.530880 -66.456150
LeftForeArm -6.922295 -0.000000 96.112888
LeftHand 17.638983 -0.000000 9.572924
LeftHandThumb1 -26.253704 0.000000 33.147579
RightShoulder -19.151927 -24.526686 -23.829771
RightArm 10.260353 -39.717150 89.226467
RightForeArm -23.891072 0.000000 103.479877
RightHand 18.101297 0.000000 0.330076
RightHandThumb1 -24.326973 -0.000000 -32.862282
LeftUpLeg 5.550703 0.781869 -9.018588
LeftLeg -3.516710 -0.000000 0.000000
LeftFoot -14.670142 13.325310 -15.096756
LeftToeBase 23.888793 -0.000000 -0.000000
RightUpLeg 17.320719 -64.448233 -25.246361
RightLeg 98.289373 -0.000000 -0.000000
RightFoot 27.577974 -18.397445 42.616411
RightToeBase 22.377050 -0.000000 -0.000000
1575
root 8.572144 32.120807 -3.222465 1.633786 0.003491 0.239724
Spine 1.284442 15.398600 -5.087870
Head 17.085559 -5.503465 -0.823912
LeftShoulder -18.185399 0.962960 27.584351
LeftArm -13.470298 -37.474172 -66.507558
LeftForeArm -6.903827 -0.000000 96.252558
LeftHand 17.573516 0.000000 9.609664
LeftHandThumb1 -26.253704 0.000000 33.147579
RightShoulder -19.189857 -24.518704 -23.708616
RightArm 10.270361 -39.792910 89.232494
RightForeArm -23.908513 -0.000000 103.439749
RightHand 18.120514 -0.000000 0.362361
RightHandThumb1 -24.326973 -0.000000 -32.862282
LeftUpLeg 5.460768 1.637399 -8.871425
LeftLeg -3.098425 -0.000000 0.000000
LeftFoot -14.853518 13.025619 -14.716816
LeftToeBase 23.598480 -0.000000 -0.000000
RightUpLeg 19.465781 -65.412729 -27.442961
RightLeg 98.185910 -0.000000 -0.000000
RightFoot 27.479667 -18.297870 42.800443
RightToeBase 22.078869 -0.000000 -0.000000
1576
root 8.563929 32.122756 -3.198394 1.581741 -0.409177 0.176906
Spine 1.179455 15.863683 -5.071425
Head 17.072451 -5.602480 -0.783690
LeftShoulder -18.254556 0.960349 27.600333
LeftArm -13.604609 -37.382255 -66.425146
LeftForeArm -6.984340 -0.000000 96.390690
LeftHand 17.479838 -0.000000 9.523704
LeftHandThumb1 -26.253704 0.000000 33.147579
RightShoulder -19.199044 -24.486114 -23.676021
RightArm 10.214210 -39.877304 89.299509
RightForeArm -23.925878 -0.000000 103.399224
RightHand 18.122550 -0.000000 0.302493
RightHandThumb1 -24.326973 -0.000000 -32.862282
LeftUpLeg 5.474997 1.750795 -8.824942
LeftLeg -2.920689 -0.000000 0.000000
LeftFoot -15.111468 13.221899 -14.808327
LeftToeBase 23.701754 -0.000000 -0.000000
RightUpLeg 21.353172 -66.153022 -29.454391
RightLeg 98.119027 -0.000000 -0.000000
RightFoot 27.362602 -18.025233 43.199230
RightToeBase 21.859467 -0.000000 -0.000000
1577
root 8.555855 32.126690 -3.182457 1.532088 -0.893672 0.104213
Spine 1.112861 16.372711 -5.040470
Head 17.000779 -5.647369 -0.719247
LeftShoulder -18.313768 1.015614 27.573653
LeftArm -13.650228 -37.374180 -66.407110
LeftForeArm -7.000930 -0.000000 96.521379
LeftHand 17.499503 -0.000000 9.471956
LeftHandThumb1 -26.253704 0.000000 33.147579
RightShoulder -19.198783 -24.424565 -23.646482
RightArm 10.169612 -39.938307 89.359583
RightForeArm -23.910886 -0.000000 103.361192
RightHand 18.145549 -0.000000 0.329574
RightHandThumb1 -24.326973 -0.000000 -32.862282
LeftUpLeg 5.508364 1.741698 -8.765271
LeftLeg -2.830582 -0.000000 0.000000
LeftFoot -15.325518 13.522633 -15.010953
LeftToeBase 23.635091 -0.000000 -0.000000
RightUpLeg 22.850592 -66.738309 -31.076217
RightLeg 98.059494 -0.000000 -0.000000
RightFoot 27.308714 -17.876469 43.400416
RightToeBase 21.276317 -0.000000 -0.000000
